<svg width="100" height="98" viewBox="0 0 100 98" fill="none" xmlns="http://www.w3.org/2000/svg">
<path d="M15.5401 68.0002C14.4559 68.0163 13.4055 68.1642 12.6717 68.7031C12.2447 69.0167 11.9069 69.4783 11.8032 70.069C11.7067 70.619 11.8445 71.1038 12.0022 71.45C12.3023 72.1088 12.8547 72.662 13.3217 73.0554C13.818 73.4735 14.3844 73.8483 14.9028 74.1273C15.2203 74.3071 15.6369 74.6635 16.1202 75.2093C16.5947 75.7452 17.0731 76.3943 17.5201 77.0742C18.415 78.435 19.1047 79.7953 19.3455 80.4021C19.9233 82.0162 21.1719 84.4083 24.0867 86.0427C26.7263 87.5229 30.5396 88.2734 36.0659 87.5108C36.0714 88.973 36.0826 90.3565 36.0938 91.5454C36.0987 92.058 36.1035 92.5327 36.1078 92.9613C36.1176 93.9264 36.125 94.6579 36.125 95.0625C36.125 95.3894 36.0067 95.6439 35.8492 95.7834C35.732 95.8872 35.3952 96.104 34.549 95.9767C15.3257 89.5164 1.5 71.4171 1.5 50C1.5 23.2034 23.2034 1.5 50 1.5C76.7966 1.5 98.5 23.2034 98.5 50C98.5 71.3636 84.6635 89.5286 65.5565 95.9831C64.7178 96.1324 64.395 95.9141 64.2847 95.8147C64.123 95.6693 64 95.3964 64 95.0625C64 94.5038 64.0069 93.5367 64.0162 92.2422C64.0208 91.597 64.026 90.8703 64.0312 90.0723C64.0469 87.68 64.0625 84.6608 64.0625 81.3125C64.0625 77.8722 63.2728 75.1644 62.0616 73.1862C66.889 72.4075 71.8088 70.8832 75.7296 67.5946C80.4612 63.6258 83.5 57.2971 83.5 47.375C83.5 41.8376 81.6544 37.268 78.5827 33.6117C79.2889 31.3923 80.285 26.4235 77.7677 20.1304L77.5078 19.4807L76.843 19.2624L76.375 20.6875C76.843 19.2624 76.8415 19.2619 76.84 19.2614L76.837 19.2604L76.8306 19.2584L76.8166 19.254L76.7839 19.2441C76.7599 19.2371 76.7316 19.2292 76.6991 19.2209C76.6339 19.2041 76.5517 19.1853 76.4521 19.1667C76.2527 19.1294 75.9849 19.0932 75.6469 19.0761C74.9697 19.042 74.0189 19.085 72.779 19.3442C70.3999 19.8416 66.9691 21.1317 62.3584 24.185C58.4183 23.1435 54.2685 22.625 50.125 22.625C45.9802 22.625 41.829 23.1439 37.8878 24.1861C33.2777 21.1614 29.8499 19.8733 27.4759 19.3687C26.2389 19.1058 25.2909 19.0563 24.6166 19.0843C24.2799 19.0982 24.0133 19.1314 23.8149 19.1661C23.7158 19.1835 23.634 19.2012 23.5693 19.217C23.5369 19.2248 23.5088 19.2323 23.485 19.2389L23.4525 19.2482L23.4386 19.2524L23.4323 19.2543L23.4293 19.2552C23.4278 19.2557 23.4264 19.2562 23.875 20.6875L23.4264 19.2562L22.7468 19.4692L22.4823 20.1304C19.9649 26.4239 20.9612 31.393 21.6675 33.6122C18.5943 37.2766 16.75 41.8985 16.75 47.375C16.75 57.2647 19.7723 63.5918 24.4859 67.5684C28.3955 70.8667 33.3057 72.4039 38.1345 73.1863C37.3887 74.4065 36.7984 75.9081 36.4639 77.6911C35.1252 78.2101 33.2407 78.7024 31.278 78.5219C29.0266 78.3149 26.5381 77.2175 24.5391 73.858L24.5307 73.8439L24.522 73.83C24.0017 72.9975 22.9672 71.5627 21.4956 70.3276C20.0272 69.0952 18.0001 67.9616 15.5401 68.0002ZM15.5401 68.0002L15.5625 69.5M15.5401 68.0002C15.5396 68.0002 15.5392 68.0002 15.5387 68.0002L15.5625 69.5M15.5625 69.5C11.375 69.5625 13.875 71.875 15.625 72.8125L37.8125 78.75C34.9375 80.0625 27.75 82.1875 23.25 74.625C22.3125 73.125 19.5 69.4375 15.5625 69.5Z" stroke="white" stroke-width="3"/>
</svg>
