<svg width="118" height="113" viewBox="0 0 118 113" fill="none" xmlns="http://www.w3.org/2000/svg">
<rect y="13" width="100" height="100" fill="#2D2D2D"/>
<rect x="10" y="23" width="80" height="80" fill="#D9D9D9"/>
<path d="M101.335 45.1751C101.335 45.5082 101.592 45.9595 101.774 46.2449C102.108 46.7708 101.573 46.0066 101.493 45.8503C101.197 45.2663 101.083 44.9072 101.024 45.7977C101.011 46.0004 101.099 46.6059 101.099 46.4027C101.099 45.4177 101.035 44.4248 101.015 43.439C101.006 42.9693 100.987 42.4515 100.783 42.0185C100.661 41.7584 100.455 41.47 100.393 41.1899C100.326 40.8874 100.309 40.6175 100.309 40.2999C100.309 40.0784 100.187 40.0086 100.388 40.2999C101.067 41.2804 101.897 41.9914 102.677 42.8822C103.146 43.4185 103.528 44.0658 103.817 44.7192C104.297 45.8065 105.002 46.8261 105.522 47.9109C106.602 50.1613 107.104 52.6893 107.868 55.0571C108.149 55.9287 107.994 57.191 107.96 58.0822C107.922 59.08 107.85 59.9982 108.026 60.9845C108.254 62.2682 108.596 63.4548 108.596 64.7899C108.596 66.3881 108.291 67.9374 107.846 69.481C107.233 71.6058 106.641 73.802 106.29 75.9871C106.148 76.8647 105.789 77.9774 105.123 78.5957C104.771 78.9229 104.587 79.3897 104.255 79.74C103.973 80.0377 103.713 80.4359 103.527 80.801C103.145 81.5514 102.601 82.2102 102.168 82.9317C102.048 83.1322 101.678 83.6185 101.651 83.8436C101.634 83.9854 101.404 84.189 101.296 84.2732C101.076 84.4442 100.998 83.3597 101.059 83.1772C101.398 82.1606 102.242 81.428 102.817 80.5467C103.091 80.127 103.388 79.5745 103.72 79.2051C104.283 78.5794 104.47 77.5052 104.847 76.75C105.294 75.8558 105.477 74.8465 105.912 73.9441C106.22 73.308 106.346 72.5802 106.43 71.8836C106.488 71.3997 106.388 70.8755 106.526 70.4105C106.667 69.9338 106.762 69.3782 106.864 68.8848C106.992 68.2653 107.23 67.6747 107.372 67.0566C107.583 66.1459 107.506 65.1053 107.491 64.1762C107.462 62.4323 107.439 60.6739 107.412 58.9239C107.395 57.809 106.978 56.6764 106.658 55.6226C106.327 54.5352 106.074 53.4326 105.641 52.3827C105.039 50.9273 104.481 49.4036 103.983 47.9109C103.575 46.6847 103.047 45.4044 102.247 44.386C102.225 44.3571 102.073 44.115 102.046 44.2194C101.92 44.6909 101.938 45.2353 101.888 45.7188C101.82 46.3771 101.74 47.0651 101.87 47.718C102.002 48.3791 102.275 48.9962 102.449 49.647C102.561 50.0671 102.693 50.5506 102.87 50.9359C103.124 51.4883 103.363 52.047 103.624 52.5975C103.646 52.6445 103.92 53.2533 103.922 53.2508C104.119 53.0287 103.748 51.9306 103.703 51.6988C103.583 51.0822 103.308 50.4027 103.308 49.7697C103.308 49.6007 103.396 50.0158 103.405 50.0416C103.586 50.5936 103.76 51.1417 103.909 51.7032C104.079 52.3455 104.335 52.9639 104.523 53.6015C104.714 54.2488 104.813 54.9161 105.027 55.5569C105.531 57.0694 105.624 58.8075 105.834 60.3795C105.943 61.1972 106.103 62.0644 106.145 62.8872C106.156 63.1003 106.149 63.7407 106.149 63.5273C106.149 62.9457 106.106 62.3761 106.026 61.7999C105.57 58.4793 104.871 55.1479 104.115 51.8829C103.901 50.959 103.682 50.0459 103.501 49.1165C103.491 49.0664 103.313 48.19 103.247 48.5948C102.95 50.4119 103.161 52.2785 102.918 54.1013C102.909 54.1677 102.76 53.8623 102.738 53.8251C102.399 53.2382 102.056 52.655 101.704 52.0758C101.541 51.8076 101.432 51.5198 101.256 51.256C100.948 50.7936 101.029 51.0937 101.116 51.462C101.379 52.5718 101.855 53.586 102.168 54.6669C102.5 55.8131 102.759 56.994 102.958 58.1698C103.258 59.9464 103.451 61.6906 103.313 63.4835C103.243 64.3938 103.012 65.2832 102.852 66.1841C102.684 67.1309 102.592 68.1304 102.523 69.0864C102.438 70.2769 102.178 71.4279 102.011 72.6113C101.835 73.8519 101.567 75.0894 101.458 76.3379C101.419 76.7836 101.411 77.2009 101.274 77.6268C100.951 78.6296 100.882 79.2419 101.256 80.2398C101.401 80.6258 101.791 79.928 101.962 79.74C102.294 79.3754 102.546 78.8782 102.716 78.4204C103.406 76.5699 103.65 74.5876 104.159 72.6902C104.36 71.9395 104.649 71.2316 104.856 70.4762C105.198 69.2285 105.523 67.9553 105.671 66.6664C105.801 65.5401 105.843 64.4414 105.834 63.3081C105.822 61.9107 105.373 60.4961 104.873 59.2045C104.289 57.6937 103.602 56.2207 103.072 54.6888C102.933 54.2879 102.568 53.1182 102.523 53.5401C102.404 54.6783 102.548 55.9508 102.637 57.0957C102.657 57.3481 102.677 58.1073 102.677 57.8542C102.677 57.2536 102.583 56.6601 102.458 56.0742C102.252 55.1128 102.223 54.0894 101.949 53.1456C101.941 53.1179 101.888 53.9123 101.888 54.075C101.888 55.3389 101.847 56.6098 101.927 57.8717C101.977 58.6562 102.038 59.4517 102.142 60.2304C102.353 61.813 102.681 63.3725 102.791 64.9785C102.84 65.6985 102.904 66.4094 102.984 67.1267C103.004 67.3064 103.009 67.1551 103.028 67.0697C103.131 66.6065 103.223 66.1425 103.308 65.6756C103.543 64.3845 103.808 63.1019 104.036 61.8087C104.09 61.5053 104.103 61.1963 104.176 60.8968C104.199 60.8052 104.244 60.5314 104.255 60.625C104.357 61.4354 104.328 62.2777 104.369 63.0933C104.455 64.79 104.432 66.4859 104.295 68.1789C104.192 69.4425 104.074 70.5932 103.545 71.752C103.071 72.7898 102.671 73.8398 102.322 74.9262C102.265 75.1037 102.164 75.2812 102.374 75.0709C102.763 74.6821 103.138 74.2683 103.598 73.9617C104.186 73.5695 104.844 73.263 105.395 72.8218C105.648 72.6194 105.722 72.2389 105.465 72.5806C104.599 73.7356 103.826 74.9452 103.05 76.1625C102.069 77.6996 101.437 79.514 100.862 81.2394" stroke="#D9D9D9" stroke-width="2" stroke-linecap="round"/>
<path d="M98.5072 45.1797C98.878 45.6328 99.0434 46.3601 99.3172 46.8772C99.4507 47.1294 99.5132 47.3933 99.6523 47.6406C99.8471 47.9868 99.8979 48.4124 100.015 48.7857C100.208 49.3989 100.307 50.0321 100.462 50.6539" stroke="#D9D9D9" stroke-width="3" stroke-linecap="round"/>
<path d="M96.4866 40.0287C96.4697 39.843 96.3082 39.6586 96.2078 39.5152C95.994 39.2097 95.7525 38.9443 95.4906 38.6801C95.1833 38.3701 94.8958 38.0581 94.5637 37.7735C93.9289 37.2293 93.2821 36.6946 92.6338 36.1664C91.8576 35.5339 91.0598 34.9151 90.1892 34.4151C89.549 34.0475 88.8822 33.7577 88.1663 33.574C87.6784 33.4489 87.1913 33.3214 86.7069 33.1868C86.4945 33.1278 86.291 32.9952 86.0933 32.8973C85.9585 32.8306 85.8453 32.7667 85.7335 32.6686C85.5747 32.5292 85.4711 32.3371 85.3464 32.1694C85.2984 32.1049 85.1292 31.9657 85.282 31.9657C85.3927 31.9657 85.5225 32.0604 85.6263 32.0944C85.7938 32.1491 85.9614 32.203 86.1291 32.2564C86.3573 32.329 86.5942 32.362 86.8272 32.416C87.0106 32.4586 87.198 32.4825 87.3824 32.5232C87.5638 32.5633 87.761 32.5924 87.9328 32.6626C88.2138 32.7776 88.5076 32.8623 88.7905 32.9736C89.0723 33.0844 89.3543 33.2069 89.6471 33.2857C89.9043 33.355 90.1557 33.4905 90.4107 33.574C90.773 33.6926 91.1378 33.8017 91.4972 33.929C91.8072 34.0388 92.1502 34.0865 92.4479 34.2292C92.7472 34.3727 93.0534 34.4963 93.3557 34.6343C94.0539 34.953 94.7201 35.3284 95.4048 35.6708C95.9054 35.921 96.3539 36.2497 96.8344 36.5333C97.2236 36.763 97.6249 37.0031 97.996 37.2612C98.288 37.4643 98.5511 37.7091 98.8621 37.8843C99.0157 37.9708 99.1748 38.0423 99.3231 38.138C99.3724 38.1698 99.4999 38.2093 99.5292 38.2607C99.5592 38.3132 99.506 38.4686 99.4959 38.5181C99.4545 38.7204 99.3972 38.9197 99.3613 39.1233C99.2334 39.8476 99.1805 40.6072 99.2314 41.3415C99.2825 42.0798 99.3711 42.8114 99.403 43.5515C99.4186 43.9141 99.4631 44.2999 99.403 44.6606" stroke="#D9D9D9" stroke-width="2" stroke-linecap="round"/>
<path d="M84.6709 32.9521C84.6949 33.0722 84.8504 33.1679 84.9449 33.2261C85.1677 33.3636 85.4012 33.4758 85.6227 33.6157C85.9889 33.8469 86.3134 34.1549 86.72 34.3198C86.819 34.3599 86.9094 34.4142 87.0023 34.4663C87.1413 34.5443 87.2952 34.5869 87.4288 34.6748C87.7226 34.8681 88.0651 35.0102 88.3855 35.1537C88.7991 35.339 89.2001 35.5564 89.6078 35.7541C90.1651 36.0245 90.6276 36.4453 91.1541 36.7668C91.5933 37.0349 91.9799 37.3877 92.3431 37.7508C92.7422 38.15 93.1784 38.5205 93.6214 38.8695C93.8099 39.018 93.9782 39.2054 94.1492 39.3734C94.3836 39.6038 94.6077 39.8439 94.8401 40.0763C95.1086 40.3448 95.3316 40.6468 95.5621 40.9484C95.7061 41.1368 95.8595 41.3234 95.985 41.525C96.0648 41.6531 96.1215 41.793 96.1959 41.9241C96.3057 42.1175 96.4122 42.314 96.5199 42.5078C96.6233 42.6939 96.7469 42.8824 96.8297 43.0785C96.9761 43.4252 97.1294 43.7556 97.3181 44.0816C97.3559 44.1469 97.4969 44.1277 97.5588 44.1245C97.7316 44.1156 97.8314 44.0275 97.8685 43.8684C97.8898 43.777 97.8778 43.6813 97.8852 43.5884C97.8962 43.4492 97.942 43.3156 97.9448 43.1762C97.9507 42.8742 97.9662 42.5765 98.021 42.2791C98.1213 41.7346 98.1938 41.1782 98.2557 40.6279C98.2902 40.3214 98.3308 40.0199 98.3308 39.7118C98.3308 38.8969 97.453 38.4221 96.8702 38.0225C96.2263 37.581 95.5915 37.1126 94.9807 36.6262C94.811 36.4911 94.6569 36.3457 94.497 36.1997C94.4788 36.1831 94.3822 36.0787 94.4375 36.1759C94.5579 36.3877 94.6761 36.6006 94.7972 36.8121C95.2559 37.6126 95.7301 38.3973 96.2685 39.1471C96.6658 39.7003 97.0435 40.2561 97.4027 40.834C97.5058 40.9999 97.6874 41.237 97.6874 41.444" stroke="#D9D9D9" stroke-width="2" stroke-linecap="round"/>
<path d="M100.154 51.4155C100.183 51.6549 100.274 51.8919 100.356 52.1172C100.408 52.2613 100.46 52.4199 100.539 52.552" stroke="#D9D9D9" stroke-width="2" stroke-linecap="round"/>
<path d="M100.063 74.151C100.063 74.458 99.994 74.7795 99.9683 75.0878C99.943 75.3906 99.9798 75.7243 99.9092 76.0208C99.792 76.5134 99.7353 76.9581 99.5075 77.4222C99.2068 78.0347 98.9451 78.6661 98.5935 79.252C98.2832 79.7692 98.0296 80.2987 97.7672 80.8381C97.5683 81.2468 97.4576 81.7102 97.2359 82.1044C97.0405 82.4517 96.8744 82.7982 96.6628 83.1383C96.245 83.8096 95.704 84.4169 95.2423 85.0557C94.8472 85.6025 94.4555 86.1541 93.959 86.6151C93.6544 86.8979 93.3685 87.2118 93.0793 87.51C92.6841 87.9176 92.2987 88.3186 91.8607 88.6811C91.6038 88.8936 91.351 89.1131 91.0991 89.3322C90.8449 89.5532 90.5296 89.7027 90.2651 89.913C89.93 90.1794 89.5718 90.4339 89.1988 90.6442C88.554 91.0077 87.8687 91.2521 87.2109 91.581C86.7299 91.8215 86.26 92.2044 85.8819 92.5825C85.7014 92.763 85.3826 92.9947 85.324 93.2585C85.2999 93.3667 85.2573 93.4547 85.2573 93.5669C85.2573 93.6545 85.3166 93.7157 85.3259 93.7897C85.3311 93.8318 85.4304 93.9442 85.3868 93.9877C85.2391 94.1355 84.676 94.4229 84.867 94.3381C85.1506 94.212 85.3707 93.9922 85.6743 93.8811C85.9678 93.7737 86.2409 93.664 86.5445 93.5917C86.8233 93.5253 87.1113 93.531 87.3861 93.4394C87.8704 93.2779 88.322 93.015 88.7837 92.7996C89.6381 92.4009 90.4009 91.8965 91.2133 91.4248C91.6214 91.1879 92.0457 90.9927 92.4719 90.7908C92.8672 90.6036 93.2657 90.4167 93.6353 90.1815C94.4772 89.6457 95.2214 88.955 96.0192 88.3593C96.8957 87.7047 97.8449 87.1543 98.6773 86.438C99.0584 86.1101 99.4135 85.8328 99.7303 85.4346C99.82 85.3218 99.9127 85.1988 99.953 85.0576C99.9667 85.0099 99.8933 84.9118 99.8769 84.8634C99.6953 84.3283 99.6649 83.7102 99.7131 83.1497C99.7396 82.8421 99.8063 82.5904 99.875 82.2929C100.005 81.7283 100.201 81.215 100.265 80.6306C100.346 79.8955 100.372 79.1782 100.372 78.439C100.372 78.3641 100.39 78.3189 100.343 78.4047C100.157 78.7444 99.981 79.09 99.8007 79.4329C99.554 79.9023 99.3585 80.3834 99.1419 80.8648C98.9062 81.3885 98.7444 81.9526 98.5193 82.4833C98.197 83.2428 97.8412 83.9803 97.4358 84.6996C96.9365 85.5857 96.3383 86.3572 95.6917 87.1407C94.948 88.0417 93.8898 88.5508 93.0374 89.3265C92.5113 89.8054 92.081 90.3119 91.735 90.9298C91.602 91.1673 91.4901 91.4047 91.4094 91.6628C91.3842 91.7435 91.3697 91.8841 91.2895 91.9313C91.2303 91.9661 91.1394 91.9732 91.0914 92.0151C91.0321 92.067 91.2189 91.9209 91.2895 91.8856C91.6834 91.6887 92.1118 91.6078 92.489 91.3563" stroke="#D9D9D9" stroke-width="2" stroke-linecap="round"/>
<path d="M90.7754 92.83C90.688 92.8397 90.6157 92.9007 90.5355 92.9328" stroke="#D9D9D9" stroke-width="2" stroke-linecap="round"/>
<path d="M98.624 83.7133C98.5398 83.8817 98.4712 84.0529 98.3822 84.2198C98.2706 84.4291 98.0414 84.8873 98.1118 85.1337C98.1185 85.157 98.6677 84.8087 98.7268 84.7681C98.8643 84.674 99.001 84.5182 99.001 84.7529C99.001 85.035 98.8459 86.1375 99.2314 86.1829C99.3777 86.2001 99.7823 86.1607 99.7132 86.3942C99.6063 86.7548 99.3721 86.9463 99.062 87.1483C98.9563 87.217 98.8578 87.3036 98.7592 87.3825C98.6393 87.4784 98.4961 87.5571 98.3841 87.6566C98.1932 87.8263 97.9738 87.9791 97.7691 88.1327C97.2698 88.5071 96.7652 88.88 96.2439 89.2275C96.0386 89.3644 95.8101 89.4664 95.5889 89.5741C95.4891 89.6226 95.3912 89.6756 95.2957 89.7321C95.1717 89.8054 95.0176 89.8521 94.9034 89.9358C94.6912 90.0914 94.4365 90.1793 94.1951 90.2748C94.0223 90.3431 93.8518 90.4049 93.6753 90.4652C93.5105 90.5214 93.31 90.5386 93.1574 90.6194C93.085 90.6577 92.7757 90.7344 92.9422 90.7812C93.1874 90.8502 93.358 90.8079 93.5858 90.8079" stroke="#D9D9D9" stroke-width="2" stroke-linecap="round"/>
<path d="M61.8438 33.0312C65.25 32.625 68.8438 32.4219 72.625 32.4219C76.7812 32.4219 80.5 33.0781 83.7812 34.3906C87.0938 35.7031 89.7656 37.3906 91.7969 39.4531C93.8594 41.4844 95.5469 43.8906 96.8594 46.6719C98.1719 49.4531 99.0781 52.2188 99.5781 54.9688C100.109 57.6875 100.375 60.4844 100.375 63.3594C100.375 72.8281 97.7188 80.4062 92.4062 86.0938C87.0938 91.7812 79.4375 94.625 69.4375 94.625L61.75 94.5312C61.4375 81.5625 61.2812 71.875 61.2812 65.4688C61.2812 53.875 61.4688 43.0625 61.8438 33.0312ZM71.9219 99.9219C61.4531 99.9219 51 100.047 40.5625 100.297C39.7812 98.1406 39.7812 96.125 40.5625 94.25C47.3438 93.5625 50.7656 92.6406 50.8281 91.4844C51.2031 81.6719 51.3906 71.8438 51.3906 62C51.3906 51.9375 51.2344 43.2344 50.9219 35.8906C50.8594 34.7344 47.375 33.8125 40.4688 33.125C39.9375 31.125 40 29.1094 40.6562 27.0781C44.5 27.1406 56.4688 27.1719 76.5625 27.1719C80.9062 27.1719 84.8906 27.4375 88.5156 27.9688C92.1719 28.5 95.8906 29.5781 99.6719 31.2031C103.453 32.7969 106.641 34.8906 109.234 37.4844C111.828 40.0781 113.938 43.5781 115.562 47.9844C117.188 52.3906 118 57.5469 118 63.4531C118 69.0781 117.047 74.0625 115.141 78.4062C113.234 82.75 110.734 86.25 107.641 88.9062C104.578 91.5625 100.969 93.75 96.8125 95.4688C92.6562 97.1562 88.5625 98.3125 84.5312 98.9375C80.5 99.5938 76.2969 99.9219 71.9219 99.9219ZM69.0625 34.7188C68.6875 45.6875 68.5 55.9375 68.5 65.4688C68.5 73.2188 68.625 82.2969 68.875 92.7031C78.7188 92.4531 86.1094 89.6875 91.0469 84.4062C95.9844 79.125 98.4531 72.1094 98.4531 63.3594C98.4531 59.9531 98.0469 56.7031 97.2344 53.6094C96.4219 50.4844 95.125 47.4531 93.3438 44.5156C91.5625 41.5781 88.9531 39.2031 85.5156 37.3906C82.1094 35.5469 78.0938 34.5625 73.4688 34.4375C71.9375 34.4375 70.4688 34.5312 69.0625 34.7188ZM41.875 98.2812C48.5938 98.0938 57.5 98 68.5938 98C72.5625 98 76.3906 97.7031 80.0781 97.1094C83.7969 96.4844 87.5625 95.3594 91.375 93.7344C95.1875 92.1094 98.4844 90.0469 101.266 87.5469C104.047 85.0469 106.328 81.7188 108.109 77.5625C109.922 73.4062 110.828 68.6719 110.828 63.3594C110.828 40.5156 98.2812 29.0938 73.1875 29.0938C70.875 29.0938 67.5938 29.1406 63.3438 29.2344C59.0938 29.3281 55.2344 29.375 51.7656 29.375C48.3281 29.375 45.0625 29.2812 41.9688 29.0938C41.7188 29.6562 41.7188 30.3906 41.9688 31.2969C49.1562 31.9844 52.7812 33.4844 52.8438 35.7969C53.1562 43.1406 53.3125 51.875 53.3125 62C53.3125 71.9062 53.125 81.7656 52.75 91.5781C52.6875 93.8906 49.0625 95.3906 41.875 96.0781C41.5625 96.7969 41.5625 97.5312 41.875 98.2812Z" fill="#2D2D2D"/>
<path d="M61.8438 33.0312L61.6069 31.0453L59.909 31.2478L59.8451 32.9565L61.8438 33.0312ZM83.7812 34.3906L83.0385 36.2476L83.0445 36.25L83.7812 34.3906ZM91.7969 39.4531L90.3719 40.8565L90.3826 40.8674L90.3935 40.8781L91.7969 39.4531ZM99.5781 54.9688L97.6104 55.3265L97.6127 55.3394L97.6152 55.3523L99.5781 54.9688ZM69.4375 94.625L69.4131 96.6249L69.4253 96.625H69.4375V94.625ZM61.75 94.5312L59.7506 94.5794L59.797 96.5076L61.7256 96.5311L61.75 94.5312ZM40.5625 100.297L38.6821 100.978L39.1722 102.331L40.6104 102.296L40.5625 100.297ZM40.5625 94.25L40.3608 92.2602L39.1748 92.3804L38.7163 93.4808L40.5625 94.25ZM50.8281 91.4844L52.8252 91.5923L52.8261 91.5765L52.8267 91.5608L50.8281 91.4844ZM50.9219 35.8906L52.9201 35.8056L52.9196 35.7941L52.919 35.7827L50.9219 35.8906ZM40.4688 33.125L38.5358 33.6384L38.8916 34.9779L40.2706 35.1152L40.4688 33.125ZM40.6562 27.0781L40.6888 25.0784L39.2083 25.0543L38.7531 26.4633L40.6562 27.0781ZM88.5156 27.9688L88.2256 29.9476L88.228 29.948L88.5156 27.9688ZM99.6719 31.2031L98.8822 33.0407L98.8951 33.0461L99.6719 31.2031ZM107.641 88.9062L106.338 87.3888L106.33 87.3954L107.641 88.9062ZM96.8125 95.4688L97.5649 97.3219L97.5768 97.317L96.8125 95.4688ZM84.5312 98.9375L84.2248 96.9611L84.2174 96.9623L84.2099 96.9635L84.5312 98.9375ZM69.0625 34.7188L68.7982 32.7363L67.1215 32.9599L67.0637 34.6504L69.0625 34.7188ZM68.875 92.7031L66.8756 92.7512L66.9237 94.7533L68.9258 94.7025L68.875 92.7031ZM97.2344 53.6094L95.2987 54.1126L95.3 54.1174L97.2344 53.6094ZM85.5156 37.3906L84.5636 39.1495L84.5732 39.1547L84.5828 39.1598L85.5156 37.3906ZM73.4688 34.4375L73.5228 32.4382L73.4958 32.4375H73.4688V34.4375ZM41.875 98.2812L40.0288 99.0505L40.5573 100.319L41.9308 100.28L41.875 98.2812ZM80.0781 97.1094L80.3961 99.084L80.4096 99.0817L80.0781 97.1094ZM108.109 77.5625L106.276 76.763L106.271 76.7747L108.109 77.5625ZM41.9688 29.0938L42.0897 27.0974L40.7047 27.0135L40.1411 28.2815L41.9688 29.0938ZM41.9688 31.2969L40.0408 31.8287L40.4071 33.1566L41.7783 33.2878L41.9688 31.2969ZM52.8438 35.7969L50.8445 35.8509L50.8449 35.8664L50.8456 35.8819L52.8438 35.7969ZM52.75 91.5781L50.7515 91.5017L50.751 91.5129L50.7507 91.5241L52.75 91.5781ZM41.875 96.0781L41.6846 94.0872L40.5109 94.1995L40.0409 95.2807L41.875 96.0781ZM62.0806 35.0172C65.4008 34.6212 68.915 34.4219 72.625 34.4219V30.4219C68.7725 30.4219 65.0992 30.6288 61.6069 31.0453L62.0806 35.0172ZM72.625 34.4219C76.5708 34.4219 80.0312 35.0447 83.0385 36.2476L84.524 32.5337C80.9688 31.1116 76.9917 30.4219 72.625 30.4219V34.4219ZM83.0445 36.25C86.1565 37.4831 88.5754 39.0324 90.3719 40.8565L93.2218 38.0497C90.9558 35.7489 88.031 33.9232 84.518 32.5313L83.0445 36.25ZM90.3935 40.8781C92.2781 42.7341 93.8323 44.9436 95.0507 47.5254L98.6681 45.8183C97.2615 42.8376 95.4407 40.2346 93.2003 38.0282L90.3935 40.8781ZM95.0507 47.5254C96.2961 50.1647 97.1445 52.7642 97.6104 55.3265L101.546 54.611C101.012 51.6733 100.048 48.7416 98.6681 45.8183L95.0507 47.5254ZM97.6152 55.3523C98.1209 57.94 98.375 60.6083 98.375 63.3594H102.375C102.375 60.3605 102.098 57.435 101.541 54.5852L97.6152 55.3523ZM98.375 63.3594C98.375 72.4371 95.8395 79.4882 90.9447 84.7285L93.8678 87.459C99.598 81.3243 102.375 73.2192 102.375 63.3594H98.375ZM90.9447 84.7285C86.111 89.9034 79.0504 92.625 69.4375 92.625V96.625C79.8246 96.625 88.0765 93.6591 93.8678 87.459L90.9447 84.7285ZM69.4619 92.6251L61.7744 92.5314L61.7256 96.5311L69.4131 96.6249L69.4619 92.6251ZM63.7494 94.4831C63.437 81.5177 63.2812 71.8499 63.2812 65.4688H59.2812C59.2812 71.9001 59.438 81.6073 59.7506 94.5794L63.7494 94.4831ZM63.2812 65.4688C63.2812 53.8962 63.4684 43.1089 63.8424 33.106L59.8451 32.9565C59.4691 43.0161 59.2812 53.8538 59.2812 65.4688H63.2812ZM71.9219 97.9219C61.4372 97.9219 50.9681 98.0471 40.5146 98.2974L40.6104 102.296C51.0319 102.047 61.469 101.922 71.9219 101.922V97.9219ZM42.4429 99.6156C41.8085 97.8647 41.8452 96.3716 42.4087 95.0192L38.7163 93.4808C37.7173 95.8784 37.754 98.4166 38.6821 100.978L42.4429 99.6156ZM40.7642 96.2398C44.1834 95.8932 46.864 95.4782 48.7351 94.9741C49.6568 94.7258 50.5078 94.4237 51.1758 94.0253C51.7588 93.6776 52.7533 92.922 52.8252 91.5923L48.831 91.3764C48.8717 90.6249 49.415 90.4181 49.1269 90.5899C48.9239 90.711 48.4839 90.8992 47.6946 91.1118C46.1439 91.5296 43.7229 91.9193 40.3608 92.2602L40.7642 96.2398ZM52.8267 91.5608C53.2026 81.7227 53.3906 71.8692 53.3906 62H49.3906C49.3906 71.8183 49.2036 81.621 48.8296 91.408L52.8267 91.5608ZM53.3906 62C53.3906 51.9187 53.2341 43.1858 52.9201 35.8056L48.9237 35.9757C49.2346 43.2829 49.3906 51.9563 49.3906 62H53.3906ZM52.919 35.7827C52.8462 34.4363 51.8253 33.6821 51.2444 33.3418C50.5699 32.9466 49.7091 32.6462 48.7733 32.3986C46.8733 31.8959 44.1479 31.4814 40.6669 31.1348L40.2706 35.1152C43.6958 35.4561 46.1658 35.8463 47.7502 36.2655C48.5565 36.4788 49.0101 36.6687 49.2223 36.793C49.5282 36.9722 48.9663 36.7668 48.9248 35.9986L52.919 35.7827ZM42.4017 32.6116C41.9723 30.9949 42.0173 29.371 42.5594 27.693L38.7531 26.4633C37.9827 28.8478 37.9027 31.2551 38.5358 33.6384L42.4017 32.6116ZM40.6237 29.0779C44.488 29.1407 56.4776 29.1719 76.5625 29.1719V25.1719C56.4599 25.1719 44.512 25.1406 40.6888 25.0784L40.6237 29.0779ZM76.5625 29.1719C80.8264 29.1719 84.7123 29.4327 88.2256 29.9476L88.8056 25.9899C85.0689 25.4423 80.9861 25.1719 76.5625 25.1719V29.1719ZM88.228 29.948C91.6931 30.4514 95.2434 31.4769 98.8822 33.0406L100.462 29.3656C96.5378 27.6794 92.6507 26.5486 88.8032 25.9895L88.228 29.948ZM98.8951 33.0461C102.466 34.5514 105.43 36.5081 107.82 38.8986L110.649 36.0702C107.852 33.2732 104.44 31.0424 100.449 29.3601L98.8951 33.0461ZM107.82 38.8986C110.161 41.239 112.134 44.4681 113.686 48.6764L117.439 47.2923C115.741 42.6881 113.496 38.9173 110.649 36.0702L107.82 38.8986ZM113.686 48.6764C115.211 52.8123 116 57.7247 116 63.4531H120C120 57.369 119.164 51.969 117.439 47.2923L113.686 48.6764ZM116 63.4531C116 68.8521 115.086 73.5547 113.309 77.6025L116.972 79.21C119.008 74.5703 120 69.3042 120 63.4531H116ZM113.309 77.6025C111.504 81.7165 109.17 84.9573 106.338 87.3888L108.943 90.4237C112.299 87.5427 114.965 83.7835 116.972 79.21L113.309 77.6025ZM106.33 87.3954C103.447 89.896 100.027 91.9752 96.0482 93.6205L97.5768 97.317C101.91 95.5248 105.709 93.229 108.951 90.4171L106.33 87.3954ZM96.0601 93.6157C92.0332 95.2507 88.0888 96.362 84.2248 96.9611L84.8377 100.914C89.0362 100.263 93.2793 99.0618 97.5649 97.3218L96.0601 93.6157ZM84.2099 96.9635C80.2921 97.6013 76.1968 97.9219 71.9219 97.9219V101.922C76.397 101.922 80.7079 101.586 84.8526 100.912L84.2099 96.9635ZM67.0637 34.6504C66.688 45.6386 66.5 55.9116 66.5 65.4688H70.5C70.5 55.9634 70.687 45.7364 71.0613 34.7871L67.0637 34.6504ZM66.5 65.4688C66.5 73.2391 66.6253 82.3339 66.8756 92.7512L70.8744 92.6551C70.6247 82.2598 70.5 73.1984 70.5 65.4688H66.5ZM68.9258 94.7025C79.1061 94.4439 87.0873 91.57 92.5078 85.7721L89.5859 83.0404C85.1314 87.805 78.3314 90.4623 68.8242 90.7038L68.9258 94.7025ZM92.5078 85.7721C97.8617 80.0456 100.453 72.5039 100.453 63.3594H96.4531C96.4531 71.7149 94.1071 78.2044 89.5859 83.0404L92.5078 85.7721ZM100.453 63.3594C100.453 59.7928 100.028 56.3713 99.1688 53.1014L95.3 54.1174C96.0662 57.0349 96.4531 60.1135 96.4531 63.3594H100.453ZM99.17 53.1061C98.3056 49.7815 96.9294 46.5715 95.0539 43.4786L91.6336 45.5526C93.3206 48.3347 94.5381 51.1872 95.2987 54.1126L99.17 53.1061ZM95.0539 43.4786C93.061 40.192 90.1636 37.5804 86.4484 35.6215L84.5828 39.1598C87.7426 40.8259 90.064 42.9642 91.6336 45.5526L95.0539 43.4786ZM86.4677 35.6318C82.7363 33.612 78.4012 32.5701 73.5228 32.4382L73.4147 36.4368C77.7863 36.5549 81.4824 37.4817 84.5636 39.1495L86.4677 35.6318ZM73.4688 32.4375C71.856 32.4375 70.2986 32.5362 68.7982 32.7363L69.3268 36.7012C70.6389 36.5263 72.019 36.4375 73.4688 36.4375V32.4375ZM41.9308 100.28C48.6229 100.094 57.5083 100 68.5938 100V96C57.4917 96 48.5646 96.0938 41.8192 96.282L41.9308 100.28ZM68.5938 100C72.6624 100 76.5971 99.6956 80.3961 99.0839L79.7602 95.1348C76.1841 95.7106 72.4626 96 68.5938 96V100ZM80.4096 99.0817C84.2985 98.4281 88.2157 97.255 92.1592 95.5742L90.5908 91.8945C86.9093 93.4637 83.2953 94.5406 79.7466 95.137L80.4096 99.0817ZM92.1592 95.5742C96.1523 93.8722 99.641 91.6964 102.603 89.0343L99.9286 86.0595C97.3277 88.3974 94.2227 90.3465 90.5908 91.8945L92.1592 95.5742ZM102.603 89.0343C105.64 86.304 108.076 82.7186 109.948 78.3503L106.271 76.7747C104.581 80.7189 102.454 83.7898 99.9286 86.0595L102.603 89.0343ZM109.943 78.362C111.882 73.914 112.828 68.9003 112.828 63.3594H108.828C108.828 68.4434 107.961 72.8985 106.276 76.763L109.943 78.362ZM112.828 63.3594C112.828 51.5783 109.584 42.3895 102.764 36.1812C95.9802 30.0053 85.9986 27.0938 73.1875 27.0938V31.0938C85.4701 31.0938 94.3089 33.8931 100.072 39.1391C105.799 44.3527 108.828 52.2967 108.828 63.3594H112.828ZM73.1875 27.0938C70.8529 27.0938 67.5544 27.141 63.2996 27.2349L63.3879 31.2339C67.6331 31.1402 70.8971 31.0938 73.1875 31.0938V27.0938ZM63.2996 27.2349C59.0612 27.3284 55.2168 27.375 51.7656 27.375V31.375C55.2519 31.375 59.1263 31.3279 63.3879 31.2339L63.2996 27.2349ZM51.7656 27.375C48.3642 27.375 45.1391 27.2822 42.0897 27.0974L41.8478 31.0901C44.9859 31.2803 48.2921 31.375 51.7656 31.375V27.375ZM40.1411 28.2815C39.6264 29.4396 39.7296 30.7008 40.0408 31.8287L43.8967 30.765C43.7079 30.0805 43.8111 29.8729 43.7964 29.906L40.1411 28.2815ZM41.7783 33.2878C45.3109 33.6257 47.7781 34.1502 49.3134 34.7855C50.0772 35.1016 50.4896 35.3967 50.6913 35.6053C50.859 35.7787 50.8443 35.8461 50.8445 35.8509L54.843 35.7428C54.7781 33.3395 52.8373 31.9148 50.8428 31.0895C48.7532 30.2248 45.8141 29.6556 42.1592 29.306L41.7783 33.2878ZM50.8456 35.8819C51.1565 43.189 51.3125 51.8936 51.3125 62H55.3125C55.3125 51.8564 55.156 43.0922 54.8419 35.7118L50.8456 35.8819ZM51.3125 62C51.3125 71.881 51.1255 81.7149 50.7515 91.5017L54.7485 91.6545C55.1245 81.8163 55.3125 71.9315 55.3125 62H51.3125ZM50.7507 91.5241C50.7506 91.5289 50.7653 91.5963 50.5976 91.7697C50.3959 91.9783 49.9834 92.2734 49.2197 92.5895C47.6843 93.2248 45.2171 93.7493 41.6846 94.0872L42.0654 98.069C45.7204 97.7194 48.6594 97.1502 50.7491 96.2855C52.7435 95.4602 54.6843 94.0355 54.7493 91.6322L50.7507 91.5241ZM40.0409 95.2807C39.5027 96.5185 39.5157 97.819 40.0288 99.0505L43.7212 97.512C43.6093 97.2435 43.6223 97.0753 43.7091 96.8756L40.0409 95.2807Z" fill="#D9D9D9"/>
</svg>
