<svg width="37" height="82" viewBox="0 0 37 82" fill="none" xmlns="http://www.w3.org/2000/svg">
<mask id="mask0_5_807" style="mask-type:alpha" maskUnits="userSpaceOnUse" x="16" y="61" width="6" height="21">
<path d="M20.1518 73.2001C20.2407 72.1851 20.7279 71.3426 21.2583 70.5026C20.7254 70.2818 20.3295 69.8428 20.0199 69.353C19.7529 68.8893 19.5319 68.4006 19.3601 67.8939C18.7409 66.0363 18.6089 64.0874 18.4313 62.1892V61.0396C18.2105 61.2172 18.1648 62.7196 18.1648 62.9429C18.0357 64.9491 17.7695 66.9441 17.368 68.914C17.2361 69.7108 17.1472 70.5051 16.6575 71.2131C16.6575 71.302 16.6575 71.3908 16.7006 71.5227C17.4974 73.8675 17.7157 76.2555 17.8502 78.6891V79.5773C17.8502 80.6381 17.807 80.4147 18.6876 80.77C19.0429 80.902 19.4388 80.9476 19.794 81.2116C20.0605 81.2116 20.1036 80.9908 20.1036 80.8132L19.9717 79.354V75.2836C19.9285 74.573 20.0605 73.8675 20.1493 73.2027L20.1518 73.2001Z" fill="#C2BFBF"/>
</mask>
<g mask="url(#mask0_5_807)">
<rect x="0.963623" y="59.2207" width="39" height="32" fill="#929292"/>
</g>
<mask id="mask1_5_807" style="mask-type:alpha" maskUnits="userSpaceOnUse" x="17" y="0" width="20" height="71">
<path d="M17.9847 0.221802L20.1519 4.29223C20.6391 5.04338 21.1669 5.70825 21.7887 6.32744C23.6114 8.12748 25.3105 10.0486 26.8742 12.0778C30.5462 16.8994 33.0229 22.2539 34.7917 28.0448C35.8525 31.5824 36.4285 35.2112 36.4716 38.8807C36.6493 49.8511 32.8885 59.2709 25.3059 67.0996C24.0725 68.3411 22.74 69.48 21.3217 70.5052C20.5706 70.5052 20.2153 69.9291 19.9057 69.3987C19.3419 68.4153 18.9667 67.3352 18.7993 66.214C18.5328 64.8868 18.3577 63.5596 18.444 62.1892V61.57C18.3831 61.4381 17.7208 0.533935 17.9847 0.221802V0.221802Z" fill="#599636"/>
</mask>
<g mask="url(#mask1_5_807)">
<rect x="12.9636" y="-6.7793" width="38" height="81" fill="#A7A5A5"/>
</g>
<mask id="mask2_5_807" style="mask-type:alpha" maskUnits="userSpaceOnUse" x="0" y="0" width="19" height="72">
<path d="M17.9847 0.0873036C17.8959 -0.0903335 17.807 0.0441631 17.7182 0.130444C17.7614 1.01863 17.4518 1.81038 16.9671 2.56661C16.4342 3.31776 15.7287 3.89381 15.0207 4.513C11.0873 7.91856 7.99132 12.0321 5.51202 16.6329C2.21304 22.8248 0.512804 29.4609 0.0306468 36.4471C-0.190131 38.967 0.827475 47.859 1.62177 50.4246C3.78894 57.2357 7.68173 62.9429 12.7241 67.8964C13.9625 69.0891 15.2871 70.1956 16.6575 71.2589C17.0559 71.2589 17.099 70.9036 17.1904 70.6397C17.3651 70.0749 17.4982 69.4982 17.5888 68.914L18.477 62.2806L17.9847 0.0873036Z" fill="#6CAC48"/>
</mask>
<g mask="url(#mask2_5_807)">
<rect x="-8.03638" y="-2.7793" width="39" height="77" fill="#D9D9D9"/>
</g>
</svg>
