<svg width="80" height="80" viewBox="0 0 80 80" fill="none" xmlns="http://www.w3.org/2000/svg">
<path d="M12.4263 55.5065C11.5481 55.52 10.6167 55.6406 9.94543 56.146C9.55048 56.4434 9.24063 56.8802 9.14604 57.4326C9.05831 57.9448 9.18399 58.392 9.32297 58.7048C9.58664 59.2982 10.0647 59.7841 10.45 60.1168C10.8625 60.4731 11.3316 60.7916 11.763 61.0299C11.9745 61.1534 12.2821 61.4173 12.6593 61.854C13.0278 62.2807 13.4028 62.8019 13.7561 63.3527C14.4634 64.4554 15.0052 65.5529 15.1914 66.0325C15.6651 67.387 16.6952 69.415 19.1086 70.8025C21.2419 72.029 24.266 72.6459 28.554 72.0925C28.5587 73.177 28.5669 74.2006 28.5751 75.0909C28.5789 75.5125 28.5828 75.9024 28.5863 76.2542C28.5941 77.0449 28.6 77.6429 28.6 77.9736C28.6 78.1944 28.5207 78.3263 28.4666 78.3755L28.4659 78.3761C28.4493 78.3914 28.2845 78.5437 27.7176 78.4619C12.4851 73.1998 1.5 58.4726 1.5 41.0118C1.5 19.1456 18.7635 1.5 40 1.5C61.2365 1.5 78.5 19.1456 78.5 41.0118C78.5 58.4305 67.5041 73.2125 52.3625 78.4685C52.0804 78.5172 51.9035 78.5003 51.8066 78.4784C51.7077 78.4561 51.6645 78.4233 51.6422 78.4027C51.5837 78.3488 51.5 78.2011 51.5 77.9736C51.5 77.5162 51.5055 76.7245 51.5129 75.6637C51.5166 75.1342 51.5208 74.5376 51.525 73.882C51.5375 71.9195 51.55 69.4425 51.55 66.6954C51.55 64.0222 50.9895 61.863 50.0988 60.2275C53.8662 59.5639 57.7038 58.2926 60.7906 55.6381C64.6538 52.3157 67.1 47.0438 67.1 38.8586C67.1 34.3142 65.6383 30.5446 63.1934 27.5157C63.7655 25.6023 64.4921 21.5363 62.4974 16.4234L62.2427 15.7706L61.5786 15.547L61.1 16.9686C61.5786 15.547 61.5771 15.5465 61.5756 15.546L61.5726 15.545L61.5662 15.5429L61.5525 15.5385L61.5211 15.5288C61.4985 15.522 61.4724 15.5146 61.4428 15.5068C61.3836 15.4912 61.3106 15.4741 61.2235 15.4574C61.0493 15.424 60.8201 15.3925 60.5345 15.3777C59.9623 15.3481 59.1727 15.3862 58.1544 15.6045C56.2225 16.0185 53.4799 17.078 49.8278 19.5403C46.69 18.7041 43.392 18.2882 40.1 18.2882C36.8067 18.2882 33.5073 18.7045 30.3683 19.5413C26.7169 17.1021 23.9773 16.0446 22.0506 15.6248C21.0352 15.4035 20.2486 15.3601 19.6793 15.3843C19.3951 15.3963 19.1671 15.4252 18.9939 15.4563C18.9073 15.4718 18.8348 15.4878 18.776 15.5025C18.7466 15.5099 18.7206 15.5169 18.6981 15.5233L18.667 15.5324L18.6534 15.5366L18.6471 15.5386L18.644 15.5396C18.6425 15.5401 18.6411 15.5405 19.1 16.9686L18.6411 15.5405L17.9619 15.7588L17.7026 16.4234C15.7077 21.5368 16.4346 25.603 17.0068 27.5162C14.5604 30.5528 13.1 34.3639 13.1 38.8586C13.1 47.0171 15.5329 52.2874 19.3812 55.616C22.4594 58.2786 26.29 59.5602 30.0585 60.2274C29.5517 61.1589 29.1498 62.2625 28.9026 63.5359C27.8738 63.9272 26.4852 64.2732 25.0533 64.1382C23.3605 63.9786 21.454 63.1393 19.8973 60.4571L19.8892 60.4431L19.8808 60.4293C19.456 59.7325 18.611 58.5298 17.4034 57.4906C16.2003 56.4553 14.5056 55.4729 12.4263 55.5065ZM12.4263 55.5065C12.4261 55.5065 12.4258 55.5065 12.4256 55.5065L12.45 57.0063L12.427 55.5065C12.4268 55.5065 12.4266 55.5065 12.4263 55.5065Z" stroke="#2D2D2D" stroke-width="3"/>
</svg>
