<svg width="100" height="114" viewBox="0 0 100 114" fill="none" xmlns="http://www.w3.org/2000/svg">
<mask id="mask0_6_836" style="mask-type:alpha" maskUnits="userSpaceOnUse" x="0" y="0" width="50" height="114">
<path d="M9.28144 102.395L0 0H50V113.473L9.28144 102.395Z" fill="#264DE4"/>
</mask>
<g mask="url(#mask0_6_836)">
<rect x="-10" y="-6" width="65" height="126" fill="#D9D9D9"/>
</g>
<mask id="mask1_6_836" style="mask-type:alpha" maskUnits="userSpaceOnUse" x="49" y="0" width="51" height="114">
<path d="M90.4744 102.395L99.7006 0H49.7006V113.473L90.4744 102.395Z" fill="#E44D26"/>
</mask>
<g mask="url(#mask1_6_836)">
<rect x="45" y="-3" width="59" height="127" fill="#ADACAC"/>
</g>
<path d="M14.7573 40.7395L16.115 55.924H50V40.7395H14.7573ZM12.0298 10L13.4054 25.1846H49.9941V10H12H12.0298ZM49.9941 80.1823H49.9285L33.0635 75.6126L31.9856 63.4984H16.7582L18.8782 87.3445L49.8928 96H49.9643L49.9941 80.1823Z" fill="#EBEBEB"/>
<path d="M49.6228 55.9384H68.2826L66.5238 75.6296L49.6228 80.1971V96.0239L80.6959 87.3964L80.9203 84.8299L84.4814 44.8604L84.8506 40.7859H49.6228V55.9674V55.9384ZM49.6228 25.1765V25.2128H86.2331L86.5371 21.798L87.2609 14.0984L87.6228 10.0239H49.6228V25.1693V25.1765Z" fill="#EBEBEB"/>
</svg>
