<svg width="75" height="75" viewBox="0 0 75 75" fill="none" xmlns="http://www.w3.org/2000/svg">
<mask id="mask0_5_812" style="mask-type:alpha" maskUnits="userSpaceOnUse" x="0" y="0" width="76" height="76">
<path d="M0.00225527 0.00225527C25.0003 0.000302149 50.0003 -0.00165098 74.9983 0.00225527C75.0023 25.0003 75.0003 50.0003 74.9983 74.9983C50.0003 75.0023 25.0003 75.0003 0.00225527 74.9983C0.000302149 50.0003 -0.00165098 25.0003 0.00225527 0.00225527ZM51.0316 35.5941C48.8148 36.9007 47.2444 39.2288 46.8714 41.7776C46.4573 44.6409 47.0706 47.7816 49.0569 49.9691C51.1898 52.3694 54.2581 53.5569 57.1409 54.7855C58.5648 55.4398 60.1038 55.9964 61.2386 57.1194C62.4964 58.3655 62.4163 60.6859 60.9827 61.7679C59.3538 63.0296 57.0882 63.0706 55.1605 62.598C53.0413 62.0726 51.4573 60.4046 50.3616 58.5941C48.4456 59.6956 46.5296 60.7972 44.6292 61.9241C45.7151 64.0667 47.4144 65.8987 49.4886 67.1155C52.4983 68.8909 56.1273 69.3753 59.5628 69.0023C62.3382 68.6898 65.1624 67.6116 67.0198 65.4495C68.6116 63.6409 69.2679 61.1644 69.1546 58.7874C69.1077 56.6155 68.4163 54.4105 66.9554 52.7698C65.0843 50.6487 62.4769 49.3929 59.9319 48.2679C58.2191 47.4788 56.3597 46.9124 54.8577 45.7366C53.5257 44.7171 53.3109 42.5706 54.3792 41.2913C55.3694 40.1097 57.1136 39.9651 58.5179 40.348C59.9339 40.7308 60.9202 41.9378 61.5999 43.1722C63.4652 42.0491 65.2347 40.7718 67.0667 39.5921C65.7347 37.0648 63.3597 35.0511 60.5433 34.4202C57.3812 33.7151 53.8636 33.9007 51.0316 35.5941ZM33.7601 34.4163C33.7347 42.4788 33.764 50.5394 33.7444 58.6019C33.7132 59.9456 33.4788 61.5491 32.2366 62.3245C31.1448 62.9319 29.7757 62.973 28.598 62.6058C27.0491 62.0667 26.2503 60.5276 25.4417 59.2171C23.5315 60.3734 21.6058 61.5042 19.7093 62.68C21.1312 65.8206 24.0648 68.2425 27.4788 68.8499C30.8968 69.4671 34.7815 69.1253 37.553 66.8519C39.9105 64.9085 40.8128 61.7425 40.8265 58.7874C40.8304 50.6644 40.846 42.5394 40.8187 34.4144C38.4651 34.4163 36.1116 34.4105 33.7601 34.4163Z" fill="#FFCA28"/>
</mask>
<g mask="url(#mask0_5_812)">
<rect x="-6.49976" y="-8.49969" width="93" height="90" fill="#D9D9D9"/>
</g>
</svg>
