<svg width="100" height="100" viewBox="0 0 100 100" fill="none" xmlns="http://www.w3.org/2000/svg">
<mask id="mask0_5_764" style="mask-type:alpha" maskUnits="userSpaceOnUse" x="0" y="0" width="100" height="100">
<path d="M45.4881 1.06686C48.2205 -0.352413 51.7795 -0.358823 54.5096 1.06686C68.2442 8.10944 81.9832 15.141 95.7155 22.1878C98.2983 23.5081 100.026 26.1166 99.9997 28.8173V71.1881C100.019 74.0007 98.1205 76.6715 95.3956 77.9618C81.7061 84.9656 68.0236 91.9779 54.3365 98.9816C51.5476 100.429 47.9172 100.317 45.2154 98.7516C41.1113 96.5926 37.0001 94.4443 32.8956 92.2874C32.0569 91.8336 31.1114 91.4725 30.5192 90.7346C31.0427 90.0942 31.9788 90.0144 32.7394 89.7348C34.4525 89.2405 36.026 88.447 37.5998 87.677C37.9978 87.4298 38.4836 87.5245 38.8651 87.7457C42.3746 89.5717 45.8531 91.4508 49.3744 93.2593C50.1256 93.6529 50.8862 93.1304 51.5283 92.8056C64.9619 85.9158 78.412 79.052 91.8433 72.1601C92.341 71.9428 92.6161 71.4634 92.5757 70.9688C92.5851 56.9915 92.578 43.0118 92.5804 29.0345C92.6373 28.4732 92.2793 27.9572 91.7201 27.7274C78.078 20.7557 64.4431 13.7733 50.8034 6.79986C50.5671 6.65243 50.2872 6.57333 50.0004 6.57295C49.7136 6.57257 49.4334 6.65093 49.1966 6.79773C35.557 13.7733 21.9244 20.7622 8.28469 27.7335C7.72738 27.9636 7.35335 28.4711 7.41968 29.0345C7.42203 43.0118 7.41968 56.9915 7.41968 70.9709C7.39602 71.2123 7.45444 71.4544 7.58707 71.6647C7.71969 71.8751 7.92015 72.0435 8.16145 72.1473C11.8013 74.0203 15.4458 75.8801 19.0879 77.7467C21.1398 78.7489 23.6591 79.3444 25.9197 78.5765C27.9147 77.9273 29.3131 76.0799 29.275 74.1577C29.2939 60.2621 29.2656 46.3642 29.2891 32.4707C29.2393 31.8538 29.8841 31.3442 30.5451 31.4022C32.2939 31.3915 34.0451 31.3809 35.794 31.4065C36.524 31.3916 37.0264 32.0558 36.9361 32.6773C36.929 46.6609 36.955 60.6449 36.9243 74.6286C36.929 78.3554 35.2418 82.4105 31.443 84.234C26.7632 86.434 20.9789 85.9674 16.3555 83.8579C12.3531 82.0451 8.53352 79.9057 4.6021 77.9636C1.87009 76.6804 -0.0188934 73.9989 0.000337803 71.1885V28.8173C-0.0283128 26.0606 1.76804 23.4048 4.43138 22.1038C18.1185 15.0943 31.8033 8.07952 45.4881 1.06686Z" fill="#8CC84B"/>
<path d="M57.4287 30.4174C63.3982 30.0687 69.7889 30.2108 75.1607 32.8795C79.3197 34.9245 81.6255 39.2165 81.6989 43.4095C81.5828 43.9751 80.9312 44.2871 80.3363 44.2483C78.6043 44.2461 76.8719 44.2696 75.1399 44.2376C74.4052 44.2632 73.9782 43.6485 73.8859 43.0591C73.3883 41.0529 72.1826 39.0659 70.1017 38.0982C66.9073 36.6469 63.2036 36.7199 59.7203 36.7502C57.1775 36.8727 54.4431 37.0725 52.2888 38.4294C50.635 39.4573 50.1326 41.5322 50.7229 43.2033C51.2794 44.4032 52.8057 44.7903 54.0546 45.1472C61.2486 46.8546 68.8721 46.6847 75.9288 48.9317C78.8503 49.8477 81.7083 51.6285 82.7084 54.4043C84.0165 58.1247 83.4431 62.5717 80.5262 65.5584C78.1608 68.0162 74.7156 69.3539 71.2795 70.0804C66.7084 71.0054 61.9645 71.0289 57.3223 70.6182C52.9572 70.1666 48.4147 69.126 45.0449 66.427C42.1634 64.1565 40.756 60.6189 40.8957 57.2044C40.9291 56.6278 41.5617 56.2257 42.1705 56.2731C43.9146 56.2603 45.6588 56.256 47.4029 56.2752C48.0996 56.23 48.6161 56.7763 48.6518 57.3722C48.9736 59.2837 49.7652 61.2899 51.602 62.4231C55.1468 64.4984 59.5948 64.3563 63.6537 64.4144C67.0165 64.2791 70.7913 64.2381 73.5355 62.2212C74.9833 61.0708 75.4123 59.1462 75.021 57.4904C74.5971 56.0925 72.9856 55.4411 71.6017 55.0151C64.4999 52.9765 56.7913 53.7163 49.7582 51.4109C46.9029 50.4952 44.1419 48.7639 43.0449 46.1021C41.5142 42.3347 42.2156 37.6747 45.4382 34.7888C48.5804 31.9182 53.1162 30.8127 57.4287 30.4171V30.4174Z" fill="#8CC84B"/>
</mask>
<g mask="url(#mask0_5_764)">
<ellipse cx="50" cy="57" rx="100" ry="77" fill="#D9D9D9"/>
</g>
</svg>
